<mxfile host="app.diagrams.net" agent="Mozilla/5.0 (Windows NT 10.0; Win64; x64) AppleWebKit/537.36 (KHTML, like Gecko) Chrome/140.0.0.0 Safari/537.36" version="26.2.14">
  <diagram name="Page-1" id="5f0bae14-7c28-e335-631c-24af17079c00">
    <mxGraphModel dx="1181" dy="676" grid="1" gridSize="10" guides="1" tooltips="1" connect="1" arrows="1" fold="1" page="1" pageScale="1" pageWidth="1100" pageHeight="850" background="none" math="0" shadow="0">
      <root>
        <mxCell id="0" />
        <mxCell id="1" parent="0" />
        <mxCell id="jT5xxN_JUt9zY8wuHLFl-7" value="Hardware" style="swimlane;" vertex="1" parent="1">
          <mxGeometry x="220" y="200" width="240" height="220" as="geometry" />
        </mxCell>
        <mxCell id="jT5xxN_JUt9zY8wuHLFl-47" style="edgeStyle=orthogonalEdgeStyle;rounded=0;orthogonalLoop=1;jettySize=auto;html=1;entryX=0;entryY=0.25;entryDx=0;entryDy=0;exitX=1;exitY=0.25;exitDx=0;exitDy=0;fillColor=#60a917;strokeColor=#2D7600;" edge="1" parent="jT5xxN_JUt9zY8wuHLFl-7" source="jT5xxN_JUt9zY8wuHLFl-13" target="jT5xxN_JUt9zY8wuHLFl-14">
          <mxGeometry relative="1" as="geometry">
            <Array as="points">
              <mxPoint x="60" y="63" />
              <mxPoint x="60" y="63" />
            </Array>
          </mxGeometry>
        </mxCell>
        <mxCell id="jT5xxN_JUt9zY8wuHLFl-49" style="edgeStyle=orthogonalEdgeStyle;rounded=0;orthogonalLoop=1;jettySize=auto;html=1;entryX=0;entryY=0.75;entryDx=0;entryDy=0;exitX=1;exitY=0.75;exitDx=0;exitDy=0;" edge="1" parent="jT5xxN_JUt9zY8wuHLFl-7" source="jT5xxN_JUt9zY8wuHLFl-13" target="jT5xxN_JUt9zY8wuHLFl-14">
          <mxGeometry relative="1" as="geometry" />
        </mxCell>
        <mxCell id="jT5xxN_JUt9zY8wuHLFl-13" value="Mic" style="rounded=1;whiteSpace=wrap;html=1;" vertex="1" parent="jT5xxN_JUt9zY8wuHLFl-7">
          <mxGeometry x="-30" y="50" width="60" height="50" as="geometry" />
        </mxCell>
        <mxCell id="jT5xxN_JUt9zY8wuHLFl-23" style="edgeStyle=orthogonalEdgeStyle;rounded=0;orthogonalLoop=1;jettySize=auto;html=1;entryX=0.5;entryY=0;entryDx=0;entryDy=0;" edge="1" parent="jT5xxN_JUt9zY8wuHLFl-7" source="jT5xxN_JUt9zY8wuHLFl-14" target="jT5xxN_JUt9zY8wuHLFl-19">
          <mxGeometry relative="1" as="geometry" />
        </mxCell>
        <mxCell id="jT5xxN_JUt9zY8wuHLFl-14" value="Amp" style="rounded=0;whiteSpace=wrap;html=1;" vertex="1" parent="jT5xxN_JUt9zY8wuHLFl-7">
          <mxGeometry x="75" y="50" width="90" height="50" as="geometry" />
        </mxCell>
        <mxCell id="jT5xxN_JUt9zY8wuHLFl-19" value="Processor?" style="rounded=1;whiteSpace=wrap;html=1;" vertex="1" parent="jT5xxN_JUt9zY8wuHLFl-7">
          <mxGeometry x="60" y="140" width="120" height="60" as="geometry" />
        </mxCell>
        <mxCell id="jT5xxN_JUt9zY8wuHLFl-12" value="GAN" style="swimlane;" vertex="1" parent="1">
          <mxGeometry x="700" y="200" width="200" height="440" as="geometry" />
        </mxCell>
        <mxCell id="jT5xxN_JUt9zY8wuHLFl-56" style="edgeStyle=orthogonalEdgeStyle;rounded=0;orthogonalLoop=1;jettySize=auto;html=1;entryX=0.5;entryY=0;entryDx=0;entryDy=0;startArrow=classic;startFill=1;startWidth=7.142857142857142;" edge="1" parent="jT5xxN_JUt9zY8wuHLFl-12" source="jT5xxN_JUt9zY8wuHLFl-17" target="jT5xxN_JUt9zY8wuHLFl-18">
          <mxGeometry relative="1" as="geometry" />
        </mxCell>
        <mxCell id="jT5xxN_JUt9zY8wuHLFl-17" value="Generator Model" style="rounded=1;whiteSpace=wrap;html=1;" vertex="1" parent="jT5xxN_JUt9zY8wuHLFl-12">
          <mxGeometry x="40" y="50" width="120" height="100" as="geometry" />
        </mxCell>
        <mxCell id="jT5xxN_JUt9zY8wuHLFl-18" value="Discriminator Model" style="rounded=1;whiteSpace=wrap;html=1;" vertex="1" parent="jT5xxN_JUt9zY8wuHLFl-12">
          <mxGeometry x="40" y="210" width="120" height="90" as="geometry" />
        </mxCell>
        <mxCell id="jT5xxN_JUt9zY8wuHLFl-67" value="Based on Tensorflow" style="rounded=0;whiteSpace=wrap;html=1;" vertex="1" parent="jT5xxN_JUt9zY8wuHLFl-12">
          <mxGeometry y="360" width="200" height="80" as="geometry" />
        </mxCell>
        <mxCell id="jT5xxN_JUt9zY8wuHLFl-53" style="edgeStyle=orthogonalEdgeStyle;rounded=0;orthogonalLoop=1;jettySize=auto;html=1;entryX=0;entryY=0.25;entryDx=0;entryDy=0;fillColor=#60a917;strokeColor=#2D7600;" edge="1" parent="1" source="jT5xxN_JUt9zY8wuHLFl-16" target="jT5xxN_JUt9zY8wuHLFl-18">
          <mxGeometry relative="1" as="geometry">
            <Array as="points">
              <mxPoint x="560" y="290" />
              <mxPoint x="560" y="433" />
            </Array>
          </mxGeometry>
        </mxCell>
        <mxCell id="jT5xxN_JUt9zY8wuHLFl-16" value="3.5mm jack" style="rounded=1;whiteSpace=wrap;html=1;" vertex="1" parent="1">
          <mxGeometry x="420" y="245" width="80" height="60" as="geometry" />
        </mxCell>
        <mxCell id="jT5xxN_JUt9zY8wuHLFl-25" style="edgeStyle=orthogonalEdgeStyle;rounded=0;orthogonalLoop=1;jettySize=auto;html=1;entryX=0.25;entryY=1;entryDx=0;entryDy=0;" edge="1" parent="1" source="jT5xxN_JUt9zY8wuHLFl-19" target="jT5xxN_JUt9zY8wuHLFl-16">
          <mxGeometry relative="1" as="geometry" />
        </mxCell>
        <mxCell id="jT5xxN_JUt9zY8wuHLFl-45" style="edgeStyle=orthogonalEdgeStyle;rounded=0;orthogonalLoop=1;jettySize=auto;html=1;entryX=0;entryY=0.75;entryDx=0;entryDy=0;fillColor=#60a917;strokeColor=#2D7600;" edge="1" parent="1" source="jT5xxN_JUt9zY8wuHLFl-27" target="jT5xxN_JUt9zY8wuHLFl-18">
          <mxGeometry relative="1" as="geometry" />
        </mxCell>
        <mxCell id="jT5xxN_JUt9zY8wuHLFl-46" style="edgeStyle=orthogonalEdgeStyle;rounded=0;orthogonalLoop=1;jettySize=auto;html=1;entryX=0;entryY=0.75;entryDx=0;entryDy=0;fillColor=#60a917;strokeColor=#2D7600;" edge="1" parent="1" source="jT5xxN_JUt9zY8wuHLFl-27" target="jT5xxN_JUt9zY8wuHLFl-17">
          <mxGeometry relative="1" as="geometry" />
        </mxCell>
        <mxCell id="jT5xxN_JUt9zY8wuHLFl-27" value="External Mic&lt;div&gt;(Phone or Mic)&lt;/div&gt;" style="rounded=1;whiteSpace=wrap;html=1;" vertex="1" parent="1">
          <mxGeometry x="380" y="460" width="120" height="90" as="geometry" />
        </mxCell>
        <mxCell id="jT5xxN_JUt9zY8wuHLFl-50" style="edgeStyle=orthogonalEdgeStyle;rounded=0;orthogonalLoop=1;jettySize=auto;html=1;entryX=0;entryY=0.5;entryDx=0;entryDy=0;fillColor=#60a917;strokeColor=#2D7600;" edge="1" parent="1" source="jT5xxN_JUt9zY8wuHLFl-14" target="jT5xxN_JUt9zY8wuHLFl-16">
          <mxGeometry relative="1" as="geometry" />
        </mxCell>
        <mxCell id="jT5xxN_JUt9zY8wuHLFl-52" style="edgeStyle=orthogonalEdgeStyle;rounded=0;orthogonalLoop=1;jettySize=auto;html=1;fillColor=#60a917;strokeColor=#2D7600;exitX=1;exitY=0.75;exitDx=0;exitDy=0;" edge="1" parent="1" source="jT5xxN_JUt9zY8wuHLFl-16">
          <mxGeometry relative="1" as="geometry">
            <mxPoint x="740" y="290" as="targetPoint" />
            <Array as="points">
              <mxPoint x="740" y="290" />
            </Array>
          </mxGeometry>
        </mxCell>
        <mxCell id="jT5xxN_JUt9zY8wuHLFl-55" style="edgeStyle=orthogonalEdgeStyle;rounded=0;orthogonalLoop=1;jettySize=auto;html=1;entryX=1;entryY=0.75;entryDx=0;entryDy=0;fillColor=#0050ef;strokeColor=#001DBC;exitX=0.25;exitY=1;exitDx=0;exitDy=0;" edge="1" parent="1" source="jT5xxN_JUt9zY8wuHLFl-17" target="jT5xxN_JUt9zY8wuHLFl-19">
          <mxGeometry relative="1" as="geometry">
            <Array as="points">
              <mxPoint x="770" y="385" />
            </Array>
          </mxGeometry>
        </mxCell>
        <mxCell id="jT5xxN_JUt9zY8wuHLFl-58" value="Model Learn Flow" style="text;html=1;align=center;verticalAlign=middle;whiteSpace=wrap;rounded=0;fontColor=light-dark(#000000,#73B14C);" vertex="1" parent="1">
          <mxGeometry x="260" y="470" width="110" height="30" as="geometry" />
        </mxCell>
        <mxCell id="jT5xxN_JUt9zY8wuHLFl-59" value="" style="endArrow=classic;html=1;rounded=0;fontColor=light-dark(#000000,#73B14C);labelBorderColor=none;labelBackgroundColor=none;fillColor=#60a917;strokeColor=#2D7600;" edge="1" parent="1">
          <mxGeometry width="50" height="50" relative="1" as="geometry">
            <mxPoint x="220" y="484.88" as="sourcePoint" />
            <mxPoint x="260" y="485.12" as="targetPoint" />
          </mxGeometry>
        </mxCell>
        <mxCell id="jT5xxN_JUt9zY8wuHLFl-60" value="Earphone" style="rounded=1;whiteSpace=wrap;html=1;" vertex="1" parent="1">
          <mxGeometry x="520" y="140" width="120" height="60" as="geometry" />
        </mxCell>
        <mxCell id="jT5xxN_JUt9zY8wuHLFl-61" style="edgeStyle=orthogonalEdgeStyle;rounded=0;orthogonalLoop=1;jettySize=auto;html=1;entryX=0.517;entryY=1.05;entryDx=0;entryDy=0;entryPerimeter=0;" edge="1" parent="1" source="jT5xxN_JUt9zY8wuHLFl-16" target="jT5xxN_JUt9zY8wuHLFl-60">
          <mxGeometry relative="1" as="geometry">
            <Array as="points">
              <mxPoint x="582" y="260" />
            </Array>
          </mxGeometry>
        </mxCell>
        <mxCell id="jT5xxN_JUt9zY8wuHLFl-62" value="Use Flow" style="text;html=1;align=center;verticalAlign=middle;whiteSpace=wrap;rounded=0;fontColor=light-dark(#000000,#FFFFFF);" vertex="1" parent="1">
          <mxGeometry x="260" y="500" width="110" height="30" as="geometry" />
        </mxCell>
        <mxCell id="jT5xxN_JUt9zY8wuHLFl-63" value="" style="endArrow=classic;html=1;rounded=0;fontColor=light-dark(#000000,#FFFFFF);labelBorderColor=none;labelBackgroundColor=none;" edge="1" parent="1">
          <mxGeometry width="50" height="50" relative="1" as="geometry">
            <mxPoint x="220" y="514.88" as="sourcePoint" />
            <mxPoint x="260" y="515.12" as="targetPoint" />
          </mxGeometry>
        </mxCell>
        <mxCell id="jT5xxN_JUt9zY8wuHLFl-64" value="Implement" style="text;html=1;align=center;verticalAlign=middle;whiteSpace=wrap;rounded=0;labelBorderColor=none;fontColor=light-dark(#000000,#B2CBFF);" vertex="1" parent="1">
          <mxGeometry x="470" y="390" width="70" height="10" as="geometry" />
        </mxCell>
        <mxCell id="jT5xxN_JUt9zY8wuHLFl-66" value="Gather Clean Sound Data" style="text;html=1;align=center;verticalAlign=middle;whiteSpace=wrap;rounded=0;fontStyle=2;fontColor=light-dark(#000000,#494949);" vertex="1" parent="1">
          <mxGeometry x="360" y="550" width="160" height="30" as="geometry" />
        </mxCell>
      </root>
    </mxGraphModel>
  </diagram>
</mxfile>
